<?xml version="1.0" standalone="no"?>
<!DOCTYPE svg PUBLIC "-//W3C//DTD SVG 20010904//EN"
 "http://www.w3.org/TR/2001/REC-SVG-20010904/DTD/svg10.dtd">
<svg version="1.0" xmlns="http://www.w3.org/2000/svg"
 width="626.000000pt" height="626.000000pt" viewBox="0 0 626.000000 626.000000"
 preserveAspectRatio="xMidYMid meet">
<metadata>
Created by potrace 1.14, written by Peter Selinger 2001-2017
</metadata>
<g transform="translate(0.000000,626.000000) scale(0.100000,-0.100000)"
fill="#000000" stroke="none">
<path d="M0 5701 c0 -362 4 -562 10 -566 6 -3 10 2 10 12 0 12 6 6 16 -14 19
-37 34 -43 34 -13 0 11 5 20 11 20 6 0 8 7 4 18 -5 13 -4 14 6 5 10 -10 15 -8
23 9 16 31 30 32 46 3 14 -26 44 -33 56 -14 4 8 0 9 -15 4 -12 -4 -21 -2 -21
4 0 6 5 11 10 11 6 0 5 8 -2 19 -10 16 -9 25 1 45 8 14 11 39 8 58 -6 37 10
128 22 128 5 0 21 -10 36 -22 l27 -21 -7 42 c-7 41 -6 44 39 86 25 23 46 45
46 48 0 2 -10 7 -22 11 -22 5 -22 6 -3 20 11 9 16 16 11 16 -5 0 -2 8 6 18 17
19 18 64 1 69 -6 2 -8 -7 -6 -22 6 -28 -11 -35 -21 -8 -5 12 -9 14 -18 5 -27
-27 -29 -10 -3 18 23 24 26 33 17 42 -10 10 -15 10 -21 -1 -7 -11 -10 -9 -16
8 -6 19 -9 20 -23 9 -13 -11 -15 -10 -10 9 7 26 -10 42 -23 22 -4 -7 -11 -10
-15 -6 -4 3 -1 13 5 21 7 8 10 19 7 25 -3 5 6 23 20 40 14 17 21 31 14 31 -6
0 -8 5 -5 10 3 6 1 10 -4 10 -6 0 -11 -8 -11 -19 0 -10 -7 -24 -15 -31 -13
-11 -14 -8 -8 20 5 28 4 32 -10 27 -11 -4 -14 -2 -11 7 3 8 1 17 -5 21 -16 9
-13 58 4 81 19 25 19 40 0 24 -8 -7 -15 -9 -16 -4 -1 5 -2 16 -3 24 -2 8 -3
25 -4 37 -1 12 -9 29 -18 38 -15 15 -22 68 -13 105 3 12 -10 16 -68 18 l-73 3
0 -560z m230 49 c0 -5 -5 -10 -11 -10 -5 0 -7 5 -4 10 3 6 8 10 11 10 2 0 4
-4 4 -10z m-20 -60 c0 -5 -2 -10 -4 -10 -3 0 -8 5 -11 10 -3 6 -1 10 4 10 6 0
11 -4 11 -10z m50 -30 c0 -5 -7 -10 -16 -10 -8 0 -12 5 -9 10 3 6 10 10 16 10
5 0 9 -4 9 -10z m-50 -164 c0 -3 -4 -8 -10 -11 -5 -3 -10 -1 -10 4 0 6 5 11
10 11 6 0 10 -2 10 -4z m-20 -90 c0 -3 -4 -8 -10 -11 -5 -3 -10 -1 -10 4 0 6
5 11 10 11 6 0 10 -2 10 -4z"/>
<path d="M2371 6226 c12 -21 26 -33 34 -30 25 10 -5 64 -36 64 -17 0 -17 -2 2
-34z"/>
<path d="M2528 6233 c11 -16 27 -46 36 -67 12 -28 20 -36 27 -29 8 8 6 18 -6
37 -9 14 -15 30 -13 37 2 6 10 -2 18 -18 8 -15 23 -35 33 -43 13 -10 21 -37
27 -80 4 -36 6 -67 5 -70 -2 -3 4 -11 12 -19 13 -12 14 -11 8 8 -3 11 -2 21 3
21 8 0 33 -68 37 -100 0 -8 9 -26 18 -41 9 -14 20 -40 23 -59 6 -28 5 -32 -9
-27 -10 4 -17 2 -17 -3 0 -6 9 -10 20 -10 11 0 20 -7 20 -15 0 -8 5 -15 10
-15 6 0 15 -11 21 -24 6 -13 22 -29 34 -34 14 -6 26 -23 30 -41 7 -32 25 -52
25 -29 1 7 11 -7 24 -31 l23 -45 14 40 c7 21 12 49 10 62 -3 25 16 30 25 7 4
-8 13 -15 21 -15 10 0 12 6 7 23 -4 12 -7 29 -7 37 0 8 -9 21 -19 30 -10 8
-19 29 -20 45 -1 17 -8 36 -15 43 -7 7 -13 20 -13 28 0 14 2 14 15 0 8 -8 15
-19 15 -25 0 -15 20 -14 21 2 0 6 4 3 9 -8 12 -27 12 -43 0 -25 -5 8 -12 11
-16 8 -3 -4 6 -19 22 -33 15 -14 20 -23 11 -19 -30 11 -19 -15 15 -36 31 -18
54 -18 43 1 -4 5 -3 9 2 9 4 0 23 -21 42 -45 36 -48 51 -51 43 -9 -3 19 -1 25
7 20 6 -4 2 9 -10 28 -12 20 -16 36 -10 36 6 0 20 -19 32 -42 53 -108 76 -148
80 -143 5 4 57 -43 88 -80 9 -12 16 -13 21 -6 11 18 38 2 49 -30 5 -16 19 -33
31 -37 20 -8 83 -94 95 -132 4 -12 12 -19 18 -17 7 2 23 -11 37 -28 14 -17 31
-30 38 -27 6 2 12 0 12 -5 0 -4 16 -28 36 -53 32 -40 35 -42 32 -18 -2 14 -9
32 -15 39 -6 8 -14 25 -18 37 -6 21 -5 23 13 13 28 -15 37 -14 23 3 -8 10 -9
15 -1 18 13 4 2 38 -12 38 -5 0 -6 -4 -3 -10 3 -5 2 -10 -3 -10 -6 0 -12 6
-15 14 -4 10 5 19 24 28 l30 13 -33 5 c-25 4 -33 10 -34 27 -1 21 0 22 33 8
23 -10 31 -11 26 -2 -10 17 -11 47 -1 41 4 -3 8 -2 8 1 0 8 -43 44 -74 62 -18
11 -15 12 22 7 35 -6 42 -4 42 10 0 10 5 14 10 11 17 -11 11 28 -10 63 -18 29
-18 32 -2 33 12 1 10 3 -6 7 -13 4 -22 10 -20 13 2 4 -6 16 -16 28 -19 21 -9
30 11 10 16 -16 25 5 13 35 -6 17 -6 27 1 32 7 4 6 10 -1 19 -8 10 -7 16 7 23
16 9 14 12 -15 29 -42 24 -40 33 5 33 43 0 36 14 -9 16 -16 1 -34 6 -40 12 -6
6 0 8 19 5 28 -4 28 -4 6 12 -21 16 -22 52 -1 39 6 -4 5 2 -1 14 -6 12 -19 26
-29 31 -16 10 -15 10 3 11 18 1 18 2 -3 14 -22 12 -22 13 -6 27 10 8 15 9 11
3 -4 -7 0 -15 9 -18 22 -9 32 3 14 15 -13 8 -13 10 0 19 8 5 11 10 5 10 -5 0
-18 12 -29 26 -18 26 -18 26 0 20 13 -4 23 1 32 14 10 17 9 21 -10 31 -12 6
-31 20 -42 30 -11 11 -27 19 -37 19 -9 0 -22 7 -29 15 -11 13 -10 14 4 9 12
-5 15 -2 10 10 -6 14 -2 16 22 10 16 -4 39 -11 52 -15 20 -8 21 -7 12 10 -5
11 -15 22 -22 25 -7 3 2 4 20 3 43 -5 52 11 10 17 -18 3 -51 8 -73 12 -22 4
-214 9 -427 11 -368 3 -387 3 -381 -14 7 -17 6 -17 -11 0 -15 14 -37 17 -147
17 l-130 0 19 -27z m347 -83 c10 -11 14 -20 9 -20 -5 0 -1 -5 8 -11 10 -5 20
-26 23 -47 4 -20 11 -48 17 -62 15 -34 21 -80 10 -80 -5 0 -15 19 -22 43 -8
23 -20 49 -27 58 -7 8 -13 21 -13 28 0 7 -3 10 -7 8 -5 -3 -9 7 -10 21 -4 40
-8 56 -16 70 -13 19 8 14 28 -8z m805 -60 c13 -8 13 -10 -2 -10 -9 0 -20 5
-23 10 -8 13 5 13 25 0z m-60 -20 c13 -9 13 -10 0 -10 -8 0 -22 5 -30 10 -13
9 -13 10 0 10 8 0 22 -5 30 -10z m-730 -61 c0 -6 -4 -7 -10 -4 -5 3 -10 11
-10 16 0 6 5 7 10 4 6 -3 10 -11 10 -16z m16 -30 c3 -6 2 -15 -4 -21 -6 -6
-11 -2 -15 11 -5 22 7 29 19 10z m368 -394 c3 -9 0 -15 -9 -15 -9 0 -12 6 -9
15 4 8 7 15 9 15 2 0 5 -7 9 -15z m186 -166 c0 -6 -4 -7 -10 -4 -5 3 -10 11
-10 16 0 6 5 7 10 4 6 -3 10 -11 10 -16z"/>
<path d="M3808 6223 c7 -3 16 -2 19 1 4 3 -2 6 -13 5 -11 0 -14 -3 -6 -6z"/>
<path d="M255 5840 c-3 -5 1 -10 9 -10 8 0 18 5 21 10 3 6 -1 10 -9 10 -8 0
-18 -4 -21 -10z"/>
<path d="M1406 5503 c-4 -5 -13 -8 -19 -8 -7 0 -12 -6 -11 -12 1 -7 2 -20 3
-28 1 -10 12 -15 34 -15 56 0 77 38 32 58 -31 14 -30 14 -39 5z"/>
<path d="M3685 5330 c3 -5 11 -10 16 -10 6 0 7 5 4 10 -3 6 -11 10 -16 10 -6
0 -7 -4 -4 -10z"/>
<path d="M1526 5263 c-4 -5 -13 -8 -19 -8 -7 0 -12 -8 -12 -17 0 -10 -3 -18
-7 -18 -5 0 -13 0 -19 0 -5 0 -7 5 -3 11 4 8 0 8 -15 0 -11 -7 -21 -21 -21
-32 0 -20 -35 -40 -56 -32 -13 5 -38 -30 -48 -67 -7 -24 -7 -24 18 5 17 20 25
25 26 15 0 -22 -29 -62 -41 -55 -5 4 -9 -1 -9 -9 0 -9 -6 -13 -14 -10 -8 3
-17 -3 -20 -14 -4 -11 -14 -23 -23 -26 -18 -7 -32 2 -18 12 12 9 16 44 4 36
-5 -2 -14 -23 -20 -45 -9 -28 -17 -38 -27 -34 -10 3 -12 0 -8 -10 3 -8 1 -16
-4 -16 -6 -1 -14 -3 -20 -4 -5 -1 -20 -3 -32 -4 -12 0 -18 -4 -15 -8 11 -10
-37 -31 -49 -21 -8 6 -19 -4 -33 -28 l-22 -37 37 6 c23 4 43 2 53 -6 12 -9 13
-9 7 1 -4 7 -2 12 4 12 19 0 5 -24 -21 -37 -18 -10 -20 -13 -6 -13 9 0 17 -4
17 -9 0 -12 -56 -25 -71 -16 -6 4 -17 -2 -25 -14 -8 -12 -26 -21 -39 -21 -17
0 -25 -6 -27 -22 -2 -15 -10 -23 -23 -23 -11 0 -21 -7 -23 -16 -2 -11 -10 -15
-22 -12 -12 3 -22 -1 -26 -11 -8 -21 -24 -20 -24 2 0 14 -2 14 -9 3 -5 -8 -7
-20 -4 -28 3 -8 -3 -13 -18 -13 -12 0 -20 -3 -16 -6 8 -8 -25 -44 -41 -44 -7
0 -10 5 -7 10 3 6 -1 10 -10 10 -15 0 -14 -3 1 -29 10 -16 28 -35 41 -42 30
-16 29 -27 -2 -41 -14 -6 -25 -15 -25 -19 0 -9 49 -23 72 -20 9 1 22 -7 30
-17 12 -17 45 -30 103 -38 11 -1 40 -6 65 -9 25 -4 89 0 145 8 55 8 111 14
125 13 14 -1 40 1 58 5 24 5 34 3 42 -10 5 -9 10 -11 10 -5 0 7 13 14 29 16
17 2 27 0 24 -5 -3 -5 4 -6 17 -2 15 5 20 4 16 -4 -4 -6 -2 -11 3 -11 15 0 14
-16 -3 -32 -8 -8 -15 -23 -17 -33 -2 -10 -11 -21 -19 -23 -13 -5 -13 -3 -2 11
8 9 12 22 9 29 -5 15 -37 -56 -37 -83 0 -11 7 -19 15 -19 8 0 15 -7 15 -15 0
-8 5 -15 12 -15 7 0 22 -10 33 -22 12 -14 33 -24 54 -25 18 -1 37 -7 42 -14 4
-7 27 -15 50 -16 24 -2 45 -7 48 -12 8 -13 95 -21 246 -23 103 -2 137 1 165
14 45 22 86 27 83 11 -2 -8 8 -11 27 -10 31 2 40 12 18 20 -7 2 -11 7 -8 10
11 12 32 -11 33 -37 2 -32 27 -35 45 -5 8 12 19 18 30 15 11 -4 30 5 50 23 22
21 32 25 32 15 0 -8 5 -12 11 -9 6 4 8 14 5 22 -5 11 -1 14 13 10 12 -3 27 4
40 19 13 15 26 21 37 17 12 -4 15 -3 10 5 -8 13 10 36 102 128 100 101 181
117 255 50 31 -27 73 -91 127 -191 84 -158 108 -183 221 -236 20 -9 40 -22 43
-28 4 -6 18 -11 31 -11 13 0 27 -5 30 -11 4 -5 12 -8 18 -6 7 2 18 -3 26 -11
8 -7 24 -12 37 -9 13 2 25 -2 28 -8 2 -7 30 -21 61 -30 30 -10 58 -22 61 -26
3 -5 18 -9 35 -9 29 0 123 -66 161 -114 10 -11 18 -16 18 -9 0 6 -7 18 -15 27
-8 8 -15 19 -15 23 0 5 -9 19 -21 32 -12 12 -18 25 -15 28 8 8 95 -74 88 -83
-4 -4 -1 -4 6 0 8 5 23 -1 38 -15 13 -12 24 -19 24 -16 0 4 11 0 24 -9 15 -9
22 -21 19 -30 -3 -8 1 -14 8 -14 7 0 10 -3 7 -6 -4 -3 0 -17 8 -32 12 -23 12
-27 0 -30 -8 -2 -17 -11 -19 -20 -3 -12 -5 -10 -6 6 0 12 -6 22 -12 22 -8 0
-10 -14 -6 -40 3 -24 1 -41 -7 -44 -7 -3 -7 -5 2 -5 6 -1 12 -8 12 -16 0 -18
-16 -20 -24 -2 -5 9 -7 9 -12 0 -3 -7 -15 -11 -27 -9 -12 1 -16 1 -9 -1 17 -6
15 -20 -3 -27 -8 -3 -15 -1 -15 4 0 6 -4 10 -10 10 -5 0 -10 -7 -10 -16 0 -8
-4 -12 -10 -9 -5 3 -18 1 -27 -4 -17 -10 -16 -12 7 -15 14 -1 14 -20 1 -24 -6
-2 -11 1 -11 7 0 6 -10 11 -22 11 -12 0 -32 10 -45 22 -13 12 -23 16 -23 9 0
-7 -5 -9 -10 -6 -6 4 -7 11 -4 17 4 6 2 8 -4 4 -6 -3 -15 2 -21 11 -9 16 -10
16 -16 2 -5 -14 -10 -15 -31 -5 -27 12 -30 25 -11 45 10 11 9 12 -1 6 -8 -4
-13 -2 -11 6 4 37 0 40 -37 24 -34 -14 -36 -14 -41 6 -3 11 -18 26 -34 35 -16
8 -29 19 -29 24 0 5 -7 7 -15 4 -9 -4 -15 -1 -15 8 0 7 -9 19 -20 26 -22 14
-27 4 -7 -18 6 -8 2 -6 -10 4 -13 11 -23 15 -23 9 0 -21 42 -62 93 -91 79 -45
110 -75 145 -140 38 -70 38 -75 12 -67 -11 4 -20 2 -20 -4 0 -6 -10 -11 -21
-11 -19 0 -65 41 -107 94 -13 16 -15 15 -69 -12 -12 -7 -29 -9 -37 -6 -9 3
-20 -3 -27 -14 -12 -19 -16 -20 -46 -7 -24 10 -32 11 -30 2 1 -7 -8 -11 -22
-9 -13 1 -32 -5 -41 -13 -20 -18 -164 -27 -180 -11 -8 8 -13 8 -18 0 -4 -6
-24 -10 -45 -9 -20 1 -56 -7 -80 -18 -30 -14 -69 -21 -137 -24 -52 -1 -117 -5
-145 -8 -74 -7 -174 -7 -187 1 -7 5 -8 3 -3 -5 10 -18 -49 -7 -92 16 -48 25
-70 104 -45 156 6 12 13 39 17 60 3 21 13 41 21 44 7 3 14 12 14 19 0 8 9 25
21 37 11 12 23 34 26 49 3 15 9 25 14 22 5 -3 9 0 9 6 0 7 -19 10 -50 8 -27
-2 -50 -6 -50 -10 0 -5 -6 -8 -14 -8 -8 0 -17 -7 -20 -16 -3 -8 -10 -13 -15
-9 -5 3 -13 0 -16 -6 -4 -5 -13 -8 -21 -5 -7 3 -18 -3 -23 -12 -6 -10 -11 -12
-11 -4 0 19 -18 14 -48 -13 -15 -14 -21 -25 -14 -25 6 0 12 -4 12 -10 0 -5 -7
-10 -15 -10 -8 0 -15 -5 -15 -11 0 -6 -9 -8 -21 -4 -16 5 -19 4 -14 -6 6 -9 3
-11 -9 -6 -11 5 -26 -2 -43 -19 -14 -14 -27 -23 -30 -21 -10 10 -52 -44 -46
-59 4 -11 1 -15 -13 -13 -10 2 -35 -7 -54 -20 -19 -13 -27 -21 -17 -17 9 3 17
1 17 -4 0 -6 -4 -10 -10 -10 -20 0 -25 -2 -38 -13 -15 -12 -122 -19 -122 -8 1
9 60 66 60 57 0 -4 -5 -16 -11 -28 -6 -11 -8 -22 -5 -25 7 -8 38 25 32 35 -2
4 9 18 25 31 34 27 38 41 9 34 -11 -3 -20 -9 -20 -14 0 -20 -20 -7 -21 14 0
22 0 22 -9 1 -4 -12 -15 -24 -23 -27 -19 -7 -29 17 -14 32 8 8 8 11 -1 11 -7
0 -12 -4 -12 -9 0 -5 -17 -13 -37 -18 -20 -4 -38 -15 -40 -23 -3 -11 -2 -11 4
-3 10 14 27 5 36 -21 6 -14 4 -17 -9 -12 -23 9 -50 -14 -32 -27 10 -7 9 -8 -3
-4 -8 3 -29 -7 -46 -22 -24 -21 -40 -27 -66 -25 -31 3 -34 1 -29 -18 4 -15 2
-19 -7 -14 -7 5 -18 0 -26 -10 -13 -17 -16 -17 -25 -4 -9 13 -14 7 -11 -12 2
-12 -14 -9 -27 4 -9 9 -12 9 -12 0 0 -6 -18 -15 -41 -18 -22 -4 -47 -13 -55
-21 -8 -8 -14 -10 -14 -4 0 5 5 13 10 16 5 3 10 10 10 15 0 10 -69 -5 -83 -19
-19 -19 -29 -12 -22 16 6 24 5 25 -12 12 -10 -8 -22 -20 -26 -26 -12 -19 -30
-15 -23 5 5 14 3 13 -10 -3 -15 -19 -16 -20 -29 -1 -10 13 -20 16 -32 11 -25
-10 -69 -14 -80 -6 -5 3 -10 15 -10 26 -3 48 -15 121 -21 126 -4 4 -17 10 -29
14 -18 5 -22 3 -17 -9 5 -12 0 -16 -17 -16 -19 0 -21 2 -9 10 10 7 12 12 4 18
-6 4 -8 16 -4 27 9 26 -25 64 -42 47 -9 -9 -9 -18 0 -37 16 -35 16 -53 0 -37
-20 20 -30 14 -26 -17 3 -33 -16 -61 -43 -61 -10 0 -21 -4 -24 -10 -3 -5 -1
-10 5 -10 6 0 8 -5 5 -10 -4 -6 -11 -8 -16 -5 -5 4 -13 -4 -18 -17 -7 -17 -10
-19 -10 -5 -1 20 -17 23 -24 3 -3 -7 -19 -18 -37 -24 -18 -7 -28 -7 -25 -2 4
6 13 10 20 10 9 0 12 6 9 15 -4 10 -2 13 8 10 9 -4 18 6 25 27 10 27 10 30 0
16 -7 -9 -20 -16 -28 -16 -33 2 -50 -3 -44 -12 11 -18 -4 -46 -24 -46 -11 0
-18 3 -15 7 2 4 -3 10 -12 13 -13 5 -15 1 -10 -18 3 -14 1 -28 -4 -31 -21 -13
-89 83 -75 105 3 5 1 20 -5 34 -9 24 -27 28 -60 16 -3 -2 -8 -2 -11 -2 -4 1
-19 -10 -33 -23 -29 -26 -42 -32 -30 -14 4 8 0 9 -15 4 -15 -5 -21 -2 -21 10
0 10 5 13 12 9 6 -4 8 -3 4 4 -5 8 -18 7 -46 -3 -22 -8 -42 -10 -45 -5 -3 5
-18 7 -34 5 -38 -5 -52 31 -18 45 21 8 21 9 2 11 -11 1 -27 1 -35 0 -10 -1
-11 1 -4 6 7 5 9 22 6 43 -5 33 -6 33 -12 10 l-7 -25 -12 28 c-22 56 -30 15
-30 -156 0 -98 3 -166 8 -158 7 10 10 11 16 1 5 -8 2 -18 -7 -24 -13 -9 -16
-33 -16 -119 1 -59 5 -107 10 -107 5 0 6 -4 3 -10 -9 -14 8 -12 24 3 11 10 11
8 1 -11 -7 -14 -17 -21 -26 -18 -11 4 -14 -4 -14 -34 0 -41 14 -52 38 -28 6 6
15 8 19 4 4 -4 0 -12 -10 -17 -9 -6 -15 -14 -12 -20 4 -5 1 -9 -4 -9 -6 0 -11
5 -11 10 0 6 -4 10 -10 10 -6 0 -10 -300 -10 -825 l0 -825 24 -6 c14 -3 27
-12 30 -20 6 -15 -6 -19 -18 -7 -13 13 -36 11 -36 -3 0 -7 11 -16 25 -20 14
-3 25 -11 25 -16 0 -6 -11 -7 -25 -4 -24 6 -25 5 -22 -30 4 -34 22 -58 38 -48
4 2 32 -21 64 -51 31 -30 60 -55 64 -55 4 0 18 -11 31 -25 13 -14 28 -24 34
-22 16 5 57 -40 54 -60 -2 -14 4 -19 30 -21 25 -3 32 -7 28 -19 -3 -8 -6 -17
-6 -19 0 -3 -5 -2 -10 1 -5 3 -10 -3 -10 -14 0 -13 5 -18 13 -15 19 7 77 -55
77 -83 0 -15 6 -23 16 -23 11 0 15 -6 11 -19 -3 -13 -1 -18 8 -15 21 8 30 -35
10 -50 -14 -10 -12 -13 19 -24 24 -9 38 -21 42 -38 3 -13 10 -24 15 -24 5 0
12 -8 16 -17 3 -10 14 -27 25 -39 10 -11 21 -31 23 -44 6 -30 64 -148 77 -156
6 -4 5 -10 -3 -15 -10 -6 -3 -19 29 -50 46 -47 51 -58 26 -55 -9 0 -19 -5 -22
-13 -3 -10 1 -12 17 -8 14 3 24 0 28 -9 4 -12 300 -14 2114 -14 1400 0 2109 3
2109 10 0 6 -22 22 -50 38 l-50 27 1 66 c1 37 -2 76 -6 88 -4 15 -1 29 9 40
13 15 14 22 1 63 -7 25 -11 49 -7 53 3 3 6 20 7 38 0 27 4 32 27 35 34 4 41
42 8 42 -37 0 -21 28 20 35 22 4 40 11 40 16 0 5 10 9 23 9 13 0 27 4 33 10 5
5 50 20 99 34 50 13 85 25 79 25 -17 1 -64 45 -64 60 0 7 -6 11 -12 8 -8 -2
-13 -21 -13 -43 0 -49 -25 -54 -37 -7 -9 35 -70 89 -88 78 -5 -3 -10 -28 -10
-54 0 -26 -7 -56 -15 -67 -8 -10 -15 -27 -15 -37 0 -15 -7 -18 -32 -15 l-33 3
1 75 c1 41 3 99 4 128 3 43 -1 57 -19 76 -18 20 -21 30 -15 61 4 21 16 47 26
57 20 20 20 20 -1 34 -14 10 -23 31 -27 65 -7 55 -19 70 -29 38 -5 -16 -12
-19 -31 -15 -17 5 -24 2 -24 -9 0 -8 -13 -29 -30 -47 -16 -17 -30 -37 -30 -44
0 -7 -6 -14 -12 -16 -8 -3 -12 -18 -10 -41 3 -29 -1 -39 -23 -53 -18 -11 -25
-23 -22 -36 3 -11 0 -18 -9 -18 -8 0 -14 -7 -14 -15 0 -8 -5 -15 -11 -15 -6 0
-9 7 -5 15 3 10 -1 15 -14 15 -10 0 -22 5 -25 10 -11 18 -23 10 -30 -19 -3
-15 -19 -41 -35 -56 -27 -26 -30 -27 -36 -9 -11 28 -25 34 -64 28 -49 -9 -91
-35 -85 -54 2 -8 1 -20 -3 -27 -9 -14 -145 -43 -171 -36 -21 5 -81 -22 -81
-37 0 -6 -13 -10 -29 -10 -48 0 -91 -21 -107 -51 -8 -16 -12 -34 -8 -40 4 -6
10 -26 14 -44 6 -25 3 -34 -11 -43 -25 -16 -49 -15 -49 1 0 19 -37 50 -50 42
-5 -3 -8 -10 -5 -15 10 -15 -16 -98 -36 -116 -11 -9 -20 -15 -22 -13 -37 64
-38 68 -17 79 23 12 24 18 10 55 -9 25 -11 25 -40 10 -16 -8 -34 -24 -40 -35
-6 -11 -16 -20 -22 -20 -6 0 -20 -7 -30 -17 -11 -9 -18 -11 -18 -5 0 7 -5 12
-11 12 -5 0 -7 -6 -4 -12 4 -7 0 -5 -8 5 -14 17 -17 17 -39 4 -21 -14 -33 -13
-143 18 -66 19 -145 41 -175 50 -30 9 -73 20 -95 26 -45 12 -457 146 -550 180
-94 33 -90 29 -86 100 3 56 5 61 17 45 10 -15 21 -17 49 -13 19 3 35 3 35 -1
0 -11 70 -5 103 7 16 6 41 11 57 11 18 0 34 8 43 21 15 20 70 39 133 44 35 3
103 24 122 39 9 7 16 6 22 -3 6 -11 10 -9 19 6 22 42 103 61 282 66 96 3 175
10 188 16 25 14 27 33 6 51 -9 7 -14 18 -12 24 3 6 1 18 -4 27 -13 25 6 34 91
48 41 6 93 16 115 21 34 8 75 14 152 19 15 1 6 28 -12 35 -7 2 -44 0 -81 -5
-87 -12 -98 -2 -50 46 31 31 42 36 74 33 32 -3 37 0 40 19 3 19 -5 24 -51 38
-31 9 -58 23 -61 31 -6 15 -25 14 -96 -7 -25 -8 -53 -8 -94 0 -54 10 -59 9
-75 -10 -15 -19 -18 -19 -30 -5 -10 12 -10 25 3 70 14 47 23 59 64 85 26 18
74 52 107 76 33 25 68 48 78 51 28 10 32 49 7 89 -28 45 -22 60 27 72 28 6 39
14 41 31 4 28 -12 28 -72 2 l-46 -20 -45 22 c-25 12 -45 27 -45 33 0 5 20 57
45 114 55 126 86 221 134 416 42 166 49 190 144 485 62 190 99 327 115 425 3
22 6 108 6 190 0 174 -13 242 -75 403 -100 256 -111 312 -77 373 18 33 19 42
9 68 -7 16 -10 42 -7 58 3 15 7 60 8 98 1 39 7 73 12 77 7 5 7 8 -1 8 -7 0
-13 5 -13 12 0 6 7 4 18 -5 30 -28 33 -20 12 34 -20 50 -19 76 2 63 7 -4 8 -2
4 5 -4 6 -11 9 -16 6 -4 -3 -10 2 -13 9 -3 8 -2 16 4 18 14 5 -20 98 -48 131
-13 16 -28 49 -34 73 -12 46 -39 73 -94 94 -22 9 -31 7 -46 -6 -21 -19 -27 -6
-7 14 9 9 9 12 0 12 -6 0 -19 16 -28 36 -12 26 -19 32 -25 22 -7 -11 -9 -11
-9 0 0 9 -7 11 -21 7 -14 -5 -27 0 -41 15 -14 15 -27 20 -42 16 -11 -3 -27 -6
-33 -6 -7 0 -13 -7 -13 -15 0 -8 -4 -15 -10 -15 -5 0 -7 7 -4 15 4 8 1 15 -5
15 -6 0 -11 -7 -11 -15 0 -9 -6 -12 -15 -9 -8 4 -12 10 -9 16 8 12 -38 6 -47
-6 -4 -5 -17 1 -30 13 -24 22 -55 29 -43 10 4 -8 1 -8 -12 -1 -24 12 -93 4
-73 -9 9 -5 -7 -7 -38 -5 -37 3 -53 0 -53 -8 0 -13 -34 -15 -46 -3 -13 13 -47
7 -60 -10 -12 -17 -13 -16 -8 4 4 15 0 25 -15 32 -12 7 -21 9 -21 5 0 -3 -6
-1 -13 5 -10 8 -18 7 -32 -3 -21 -15 -54 -9 -73 13 -11 14 -12 13 -7 -6 3 -12
1 -25 -6 -29 -8 -4 -9 -3 -5 4 4 7 1 12 -10 12 -11 0 -15 6 -11 20 5 18 3 19
-29 5 -19 -8 -34 -11 -34 -7 0 3 -5 1 -12 -6 -8 -8 -17 -6 -36 9 -20 15 -27
17 -34 7 -6 -10 -11 -9 -19 5 -5 9 -17 17 -25 17 -9 0 -12 5 -8 13 5 9 3 9 -7
-1 -9 -8 -10 -15 -4 -20 6 -4 10 -14 10 -22 0 -8 6 -14 13 -13 6 2 12 -2 12
-7 0 -6 -7 -10 -15 -10 -8 0 -15 4 -15 9 0 5 -8 12 -19 16 -10 3 -23 15 -30
28 -6 12 -9 14 -7 5 4 -13 0 -18 -14 -18 -11 0 -20 4 -20 8 0 5 -13 8 -29 7
-19 -1 -28 3 -27 13 1 8 -5 17 -13 20 -8 3 -11 0 -7 -7 9 -15 -7 -14 -22 1 -9
9 -12 9 -12 -1 0 -10 -9 -11 -32 -7 -18 4 -41 8 -50 9 -10 1 -18 6 -18 12 0 5
-7 2 -14 -8 -13 -16 -14 -16 -20 5 -4 13 -10 18 -12 11 -4 -8 -13 -9 -27 -4
-24 9 -104 0 -126 -14 -9 -5 -18 -2 -27 9 -9 13 -23 16 -56 13 -23 -2 -51 -8
-61 -12 -14 -6 -16 -4 -10 11 5 14 3 16 -13 9 -10 -5 -30 -7 -44 -7 -87 7
-147 6 -162 0 -10 -5 -18 -3 -20 3 -3 8 -14 7 -35 -4 -29 -15 -32 -15 -37 0
-6 14 -8 14 -20 -2 -10 -14 -21 -17 -46 -11 -19 3 -30 3 -27 -1 8 -8 -21 -43
-36 -43 -6 0 -3 8 5 18 23 26 35 65 14 45z m-66 -59 c0 -8 -4 -12 -10 -9 -5 3
-10 10 -10 16 0 5 5 9 10 9 6 0 10 -7 10 -16z m28 -35 c-3 -8 -7 -3 -11 10 -4
17 -3 21 5 13 5 -5 8 -16 6 -23z m962 17 c0 -3 -4 -8 -10 -11 -5 -3 -10 -1
-10 4 0 6 5 11 10 11 6 0 10 -2 10 -4z m-1010 -32 c0 -8 -4 -12 -10 -9 -5 3
-10 10 -10 16 0 5 5 9 10 9 6 0 10 -7 10 -16z m1510 -4 c0 -5 -4 -10 -10 -10
-5 0 -10 5 -10 10 0 6 5 10 10 10 6 0 10 -4 10 -10z m686 -67 c-3 -3 0 -15 6
-27 10 -19 9 -20 -5 -8 -16 14 -20 55 -4 45 4 -3 6 -7 3 -10z m-2276 -78 c0
-8 -2 -15 -4 -15 -2 0 -6 7 -10 15 -3 8 -1 15 4 15 6 0 10 -7 10 -15z m-80
-15 c0 -5 -7 -10 -16 -10 -8 0 -12 5 -9 10 3 6 10 10 16 10 5 0 9 -4 9 -10z
m30 6 c0 -3 -4 -8 -10 -11 -5 -3 -10 -1 -10 4 0 6 5 11 10 11 6 0 10 -2 10 -4z
m-116 -81 c3 3 1 -1 -6 -8 -14 -15 -116 -42 -124 -34 -11 10 91 54 107 46 9
-5 19 -6 23 -4z m66 2 c12 3 20 0 20 -6 0 -7 5 -9 12 -5 6 4 8 3 5 -3 -12 -20
-68 -3 -66 20 0 9 2 9 5 1 3 -7 14 -10 24 -7z m-370 -267 c8 -5 12 -11 9 -14
-3 -3 -14 1 -25 9 -21 16 -8 20 16 5z m3060 -1100 c0 -5 -4 -10 -10 -10 -5 0
-10 5 -10 10 0 6 5 10 10 10 6 0 10 -4 10 -10z m-1980 -50 c0 -5 -4 -10 -10
-10 -5 0 -10 5 -10 10 0 6 5 10 10 10 6 0 10 -4 10 -10z m-326 -111 c-6 -11
-24 -2 -24 11 0 5 7 7 15 4 8 -4 12 -10 9 -15z m1976 -19 c0 -5 -2 -10 -4 -10
-3 0 -8 5 -11 10 -3 6 -1 10 4 10 6 0 11 -4 11 -10z m-3285 -57 c-6 -48 -15
-71 -15 -40 0 10 -4 17 -10 17 -5 0 -10 -6 -10 -12 0 -9 -3 -8 -9 2 -6 8 -7
18 -4 24 4 5 0 7 -9 4 -13 -5 -14 -3 -4 18 6 13 16 22 23 19 7 -2 15 0 18 5
16 26 26 7 20 -37z m500 -43 c3 -6 -1 -7 -9 -4 -18 7 -21 14 -7 14 6 0 13 -4
16 -10z m-596 -33 c-8 -7 -15 -25 -15 -42 0 -27 -3 -30 -27 -27 -25 3 -33 -9
-28 -40 2 -12 -47 -9 -55 3 -4 8 -9 7 -15 -2 -7 -11 -9 -11 -9 2 0 9 7 20 16
23 8 3 12 11 9 17 -5 7 1 10 16 9 46 -4 48 -2 38 32 -11 42 -11 44 2 31 12
-12 59 5 59 22 0 5 6 3 13 -4 10 -10 9 -15 -4 -24z m186 -8 c4 -6 5 -12 2 -15
-7 -7 -37 7 -37 17 0 13 27 11 35 -2z m215 1 c0 -5 -2 -10 -4 -10 -3 0 -8 5
-11 10 -3 6 -1 10 4 10 6 0 11 -4 11 -10z m-567 -44 c18 7 22 -3 8 -24 -10
-16 -34 -12 -42 8 -8 19 1 36 11 21 3 -7 14 -9 23 -5z m270 -38 c-6 -31 -20
-39 -18 -10 1 18 15 46 20 40 2 -2 1 -15 -2 -30z m55 20 c11 -14 -1 -58 -16
-58 -19 0 -30 25 -21 48 9 25 22 28 37 10z m42 0 c0 -4 -4 -8 -9 -8 -6 0 -12
4 -15 8 -3 5 1 9 9 9 8 0 15 -4 15 -9z m1795 -30 c1 -2 30 -46 65 -98 34 -52
80 -111 102 -131 88 -81 206 -116 356 -105 46 4 88 3 95 -1 7 -4 17 -8 22 -9
33 -3 75 -18 75 -26 0 -5 4 -7 9 -3 5 3 12 1 15 -4 9 -14 -31 -24 -112 -26
-39 -2 -78 -8 -85 -14 -8 -6 -17 -8 -20 -4 -4 3 -7 1 -7 -5 0 -7 -3 -11 -7
-11 -5 1 -10 0 -13 -1 -10 -3 -45 -11 -63 -13 -10 -1 -22 -8 -26 -16 -5 -8
-11 -9 -15 -3 -4 7 -17 7 -39 0 -32 -10 -56 -15 -112 -23 -92 -13 -147 -25
-160 -35 -17 -13 -55 -19 -55 -8 0 5 -4 6 -10 3 -16 -10 -90 -11 -90 -2 0 5
-6 5 -12 -1 -17 -13 -96 -4 -122 14 -11 8 -15 14 -9 14 6 0 13 10 16 21 4 16
3 19 -5 11 -16 -16 -38 3 -38 32 0 17 -2 18 -10 6 -9 -13 -11 -13 -20 0 -13
19 -13 30 0 30 6 0 10 7 10 15 0 8 -4 15 -10 15 -17 0 -11 25 9 37 15 10 20
10 24 0 2 -7 7 7 10 30 8 49 84 199 133 262 19 24 34 47 34 51 0 7 60 4 65 -2z
m-1180 -14 c-9 -9 -18 -14 -21 -11 -9 9 6 27 22 27 13 0 13 -2 -1 -16z m-969
-129 c10 -8 14 -15 8 -15 -5 0 -19 7 -30 15 -10 8 -14 15 -8 15 5 0 19 -7 30
-15z m-48 -44 c11 -7 11 -9 -1 -14 -9 -3 -18 1 -21 9 -6 16 2 18 22 5z m822
-91 c0 -5 -4 -10 -10 -10 -5 0 -10 5 -10 10 0 6 5 10 10 10 6 0 10 -4 10 -10z
m-695 -61 c-8 -11 -55 -12 -55 -1 0 5 14 9 30 10 17 0 28 -4 25 -9z m159 -4
c-4 -8 -12 -15 -18 -15 -23 0 -37 -22 -23 -39 10 -12 9 -14 -7 -8 -12 5 -23 3
-28 -5 -5 -9 -8 -7 -7 7 0 11 16 31 37 47 43 31 54 34 46 13z m-157 -47 c-3
-8 -6 -5 -6 6 -1 11 2 17 5 13 3 -3 4 -12 1 -19z m-97 2 c0 -5 -2 -10 -4 -10
-3 0 -8 5 -11 10 -3 6 -1 10 4 10 6 0 11 -4 11 -10z m20 -81 c0 -5 -4 -9 -10
-9 -5 0 -10 7 -10 16 0 8 5 12 10 9 6 -3 10 -10 10 -16z m1850 -4 c0 -17 -5
-25 -17 -25 -14 0 -15 2 -5 9 8 4 13 11 13 15 -2 15 -1 26 4 26 3 0 5 -11 5
-25z m-1135 -205 c3 -5 1 -10 -4 -10 -6 0 -11 5 -11 10 0 6 2 10 4 10 3 0 8
-4 11 -10z m1290 -164 c21 -4 87 -10 145 -12 58 -2 143 -8 190 -14 47 -5 195
-14 330 -20 332 -13 419 -19 461 -30 55 -15 91 -67 63 -90 -8 -7 -14 -9 -14
-5 0 4 -16 -5 -35 -19 -19 -15 -35 -23 -35 -17 0 5 -12 3 -27 -5 -37 -18 -50
-18 -62 4 -10 16 -10 16 -11 0 0 -22 -26 -23 -38 -2 -8 14 -11 14 -24 1 -11
-12 -40 -14 -143 -12 -76 2 -131 7 -133 13 -1 5 -12 8 -22 5 -11 -3 -20 0 -20
6 0 6 -7 8 -17 4 -10 -4 -14 -2 -10 4 4 6 -16 9 -54 8 -33 -1 -62 2 -65 6 -3
5 -15 4 -28 -1 -36 -13 -107 -6 -121 13 -10 14 -14 15 -24 4 -6 -8 -7 -17 -3
-22 4 -4 -3 -6 -15 -3 -24 6 -42 -20 -22 -32 8 -6 8 -9 0 -14 -6 -4 -8 -12 -5
-18 4 -6 2 -8 -4 -4 -5 3 -13 0 -15 -6 -4 -9 -8 -9 -14 -3 -8 10 -83 15 -83 5
1 -13 30 -41 37 -37 5 3 15 2 23 -4 13 -7 12 -9 -2 -9 -10 0 -18 -4 -18 -10 0
-5 7 -10 16 -10 9 0 27 -9 41 -20 23 -18 23 -25 1 -21 -5 0 -8 -3 -8 -9 0 -5
4 -10 10 -10 5 0 9 -10 7 -22 -1 -17 5 -25 30 -33 18 -6 36 -15 40 -19 4 -5 0
-6 -9 -3 -10 4 -18 2 -18 -3 0 -6 -8 -10 -17 -11 -11 0 -7 -5 10 -11 23 -8 31
-7 40 6 8 11 17 13 27 6 13 -8 12 -11 -5 -25 -11 -9 -14 -14 -7 -10 6 3 12 1
12 -5 0 -6 -7 -13 -15 -16 -23 -9 -18 -26 5 -19 14 5 20 2 20 -9 0 -9 -4 -16
-10 -16 -14 0 -1 -27 16 -34 9 -3 12 -1 9 4 -10 17 7 11 22 -7 8 -10 12 -12 8
-5 -4 7 1 12 14 12 15 0 19 -5 14 -17 -3 -12 0 -10 12 5 14 19 19 21 33 10 13
-11 14 -11 8 1 -6 9 -5 12 3 10 7 -3 12 -8 12 -12 -1 -4 -1 -14 -1 -23 0 -8
-4 -12 -10 -9 -6 3 -7 -1 -4 -9 3 -9 10 -16 16 -16 5 0 7 4 4 9 -15 23 42 39
69 18 31 -24 85 -55 85 -50 0 3 9 -2 20 -12 11 -10 20 -15 20 -12 0 4 16 -5
36 -18 20 -14 43 -25 51 -25 7 0 19 -11 25 -25 6 -14 19 -25 29 -25 10 0 24
-7 32 -15 8 -8 17 -11 21 -8 3 4 6 1 6 -5 0 -7 10 -12 23 -12 14 0 18 -3 10
-8 -10 -6 -9 -13 3 -30 8 -12 21 -22 27 -22 8 0 8 3 -1 9 -10 6 -7 10 11 15
14 3 32 8 40 12 8 3 17 -2 21 -11 4 -10 2 -14 -5 -9 -8 4 -9 -1 -4 -16 6 -19
4 -22 -9 -17 -10 4 -31 1 -49 -6 -18 -8 -38 -12 -44 -10 -7 3 -18 -7 -24 -21
-18 -38 -46 -33 -40 7 0 4 -4 7 -9 7 -6 0 -10 -7 -10 -15 0 -11 -11 -15 -40
-15 -33 0 -42 -4 -49 -22 -5 -13 -6 -27 -3 -32 3 -5 -5 -6 -17 -3 -13 3 -20 3
-17 0 13 -13 -58 -58 -75 -48 -5 4 -7 15 -4 26 5 15 1 19 -14 19 -12 0 -21 -4
-21 -8 0 -5 -16 -13 -35 -19 -26 -8 -35 -8 -35 0 0 16 -57 19 -63 3 -6 -15
-176 -13 -206 3 -13 7 -22 8 -26 1 -3 -5 -11 -10 -16 -10 -6 0 -8 4 -5 9 3 4
-6 7 -19 5 -19 -2 -25 2 -25 17 0 10 -4 19 -10 19 -5 0 -10 8 -10 17 0 13 -3
14 -12 5 -14 -14 -42 -16 -34 -3 4 5 -3 7 -13 4 -16 -4 -19 -1 -14 16 3 12 1
21 -6 21 -6 0 -11 -4 -11 -9 0 -5 -9 -11 -20 -14 -24 -6 -26 6 -5 27 25 25 18
35 -22 29 -31 -5 -35 -4 -30 10 4 10 2 17 -3 17 -6 0 -10 -5 -10 -11 0 -8 -14
-10 -42 -6 -23 3 -51 1 -62 -5 -15 -8 -21 -8 -24 1 -2 6 -12 11 -22 11 -25 0
-34 51 -12 67 36 26 39 32 37 72 -2 34 0 39 11 30 8 -6 11 -16 7 -21 -3 -6 0
-9 8 -6 8 3 14 12 14 20 0 8 6 22 13 30 6 8 9 18 6 21 -4 4 2 5 12 3 11 -2 28
0 39 5 17 6 17 8 3 8 -10 1 -18 6 -18 12 0 6 -9 8 -20 4 -24 -7 -26 7 -5 25
12 10 15 10 15 -1 0 -10 3 -10 12 -1 8 8 15 9 25 1 9 -8 13 -8 13 -1 0 17 -34
32 -58 25 -12 -3 -22 -10 -22 -17 0 -8 -3 -8 -8 0 -4 6 -15 13 -25 17 -15 6
-16 10 -5 27 7 11 23 20 36 20 13 0 34 11 47 24 13 13 30 26 37 29 7 3 3 6 -9
6 -12 1 -24 9 -28 21 -3 11 -11 20 -16 20 -12 0 -12 -17 1 -25 6 -4 7 -11 4
-17 -5 -7 -2 -8 6 -3 8 5 11 3 8 -5 -6 -20 -48 -33 -48 -15 0 8 -3 15 -7 15
-5 0 -16 7 -26 14 -17 13 -17 16 -2 46 12 23 14 35 6 43 -8 8 -11 8 -11 0 0
-6 -9 -13 -21 -16 -14 -4 -19 -2 -16 8 3 7 0 18 -6 25 -9 10 -8 12 6 7 16 -6
16 -5 1 18 -9 13 -12 30 -8 36 4 7 3 9 -2 6 -6 -3 -15 -3 -20 1 -15 10 -35 72
-23 72 5 0 9 13 9 29 0 28 22 47 41 35 11 -6 12 7 1 23 -8 13 -80 12 -100 -1
-6 -3 -21 -2 -34 3 -12 6 -17 10 -10 10 6 1 12 8 12 16 0 14 11 19 38 16 18
-3 15 30 -4 44 -16 11 -16 12 0 18 9 4 16 3 16 -2 0 -16 40 -4 58 17 11 12 24
22 31 22 6 0 10 3 10 8 -5 29 3 44 20 39 10 -2 25 -1 32 3 7 5 24 3 38 -4 14
-8 44 -17 66 -20z m305 -226 c0 -5 -5 -10 -11 -10 -5 0 -7 5 -4 10 3 6 8 10
11 10 2 0 4 -4 4 -10z m-510 -190 c0 -5 -4 -10 -10 -10 -5 0 -10 5 -10 10 0 6
5 10 10 10 6 0 10 -4 10 -10z m65 -130 c3 -5 1 -10 -4 -10 -6 0 -11 5 -11 10
0 6 2 10 4 10 3 0 8 -4 11 -10z m-165 -137 c-8 -3 -18 -11 -22 -17 -4 -6 -10
-7 -15 -3 -9 10 16 27 37 26 13 -1 13 -1 0 -6z m140 -68 c13 -16 6 -35 -15
-35 -18 0 -26 15 -19 34 8 20 18 20 34 1z m-56 -90 c-6 -16 -24 -21 -24 -7 0
11 11 22 21 22 5 0 6 -7 3 -15z m1196 -25 c-20 -13 -33 -13 -25 0 3 6 14 10
23 10 15 0 15 -2 2 -10z m134 -45 c-4 -8 -10 -12 -15 -9 -11 6 -2 24 11 24 5
0 7 -7 4 -15z m-1128 -40 c-11 -8 -22 -12 -25 -9 -6 6 19 24 34 24 6 -1 1 -7
-9 -15z m954 1 c0 -3 -4 -8 -10 -11 -5 -3 -10 -1 -10 4 0 6 5 11 10 11 6 0 10
-2 10 -4z m498 -46 c-1 -16 5 -36 11 -44 15 -18 5 -41 -12 -28 -7 4 -32 14
-57 22 -58 17 -63 22 -47 44 11 15 18 16 33 8 23 -12 54 1 54 24 0 8 4 13 9 9
5 -3 9 -19 9 -35z m-613 0 c-3 -5 -11 -10 -16 -10 -6 0 -7 5 -4 10 3 6 11 10
16 10 6 0 7 -4 4 -10z m-20 -30 c3 -6 -1 -7 -9 -4 -18 7 -21 14 -7 14 6 0 13
-4 16 -10z m565 -87 c-8 -6 -12 -15 -7 -19 4 -4 7 -2 7 4 0 16 43 15 58 0 7
-7 12 -20 12 -30 0 -16 -2 -16 -38 0 -21 9 -48 27 -62 40 -13 12 -30 22 -37
22 -17 0 -16 5 4 36 l16 26 31 -34 c27 -28 29 -35 16 -45z m-73 -20 c3 -10 18
-28 32 -40 14 -11 23 -25 19 -29 -4 -4 -17 5 -29 19 -24 31 -56 38 -44 10 5
-10 8 -29 9 -42 1 -19 -4 -24 -31 -26 -31 -3 -33 -1 -33 31 0 19 4 34 8 34 4
0 16 14 25 30 20 34 35 38 44 13z m-3302 -93 c3 -5 -1 -10 -9 -10 -9 0 -16 5
-16 10 0 6 4 10 9 10 6 0 13 -4 16 -10z m-15 -40 c0 -5 -4 -10 -9 -10 -6 0
-13 5 -16 10 -3 6 1 10 9 10 9 0 16 -4 16 -10z m4760 -85 c0 -14 -4 -25 -9
-25 -6 0 -8 36 -2 48 5 10 11 -2 11 -23z m-4600 -55 c0 -5 -2 -10 -4 -10 -3 0
-8 5 -11 10 -3 6 -1 10 4 10 6 0 11 -4 11 -10z m2458 -42 c-3 -7 -11 -13 -18
-13 -7 0 -15 6 -17 13 -3 7 4 12 17 12 13 0 20 -5 18 -12z m1992 -112 c0 -3
-6 -6 -14 -6 -15 0 -28 24 -19 34 6 5 33 -18 33 -28z m-46 -142 c4 -9 4 -19 2
-21 -8 -8 -26 8 -26 23 0 19 16 18 24 -2z m-594 -28 c0 -3 -4 -8 -10 -11 -5
-3 -10 -1 -10 4 0 6 5 11 10 11 6 0 10 -2 10 -4z"/>
<path d="M1938 2263 c-10 -2 -18 -9 -18 -14 0 -14 16 -11 30 6 7 8 11 14 9 14
-2 -1 -12 -3 -21 -6z"/>
<path d="M1900 2050 c6 -11 13 -20 16 -20 2 0 0 9 -6 20 -6 11 -13 20 -16 20
-2 0 0 -9 6 -20z"/>
<path d="M2310 1900 c0 -6 7 -10 15 -10 8 0 15 2 15 4 0 2 -7 6 -15 10 -8 3
-15 1 -15 -4z"/>
<path d="M2065 1890 c-4 -6 -11 -8 -16 -5 -5 3 -6 -1 -3 -9 8 -21 17 -20 32 4
7 11 8 20 3 20 -6 0 -13 -5 -16 -10z"/>
<path d="M2416 1711 c-4 -7 -5 -15 -2 -18 9 -9 19 4 14 18 -4 11 -6 11 -12 0z"/>
<path d="M2010 1571 c0 -6 4 -13 10 -16 6 -3 7 1 4 9 -7 18 -14 21 -14 7z"/>
<path d="M2000 1530 c0 -5 5 -10 10 -10 6 0 10 5 10 10 0 6 -4 10 -10 10 -5 0
-10 -4 -10 -10z"/>
<path d="M1957 1494 c-5 -26 2 -31 21 -12 16 16 15 25 -2 31 -9 4 -16 -3 -19
-19z"/>
<path d="M1906 1428 c3 -4 9 -8 15 -8 5 0 9 4 9 8 0 5 -7 9 -15 9 -8 0 -12 -4
-9 -9z"/>
<path d="M2980 1389 c0 -10 31 -20 41 -13 17 10 9 19 -16 19 -14 0 -25 -3 -25
-6z"/>
<path d="M376 5245 c-10 -27 -7 -35 15 -35 15 0 20 5 17 22 -4 27 -23 35 -32
13z"/>
<path d="M2375 5240 c-3 -5 -1 -10 4 -10 6 0 11 5 11 10 0 6 -2 10 -4 10 -3 0
-8 -4 -11 -10z"/>
<path d="M2680 5214 c0 -10 31 -36 37 -31 3 3 -2 13 -10 22 -16 15 -27 19 -27
9z"/>
<path d="M1370 5189 c0 -5 5 -7 10 -4 6 3 10 8 10 11 0 2 -4 4 -10 4 -5 0 -10
-5 -10 -11z"/>
<path d="M3540 5175 c7 -9 15 -13 17 -11 7 7 -7 26 -19 26 -6 0 -6 -6 2 -15z"/>
<path d="M270 5079 c0 -5 5 -7 10 -4 6 3 10 8 10 11 0 2 -4 4 -10 4 -5 0 -10
-5 -10 -11z"/>
<path d="M1280 5070 c-8 -5 -12 -11 -10 -14 3 -2 14 2 24 10 22 15 10 19 -14
4z"/>
<path d="M1155 5020 c3 -5 8 -10 11 -10 2 0 4 5 4 10 0 6 -5 10 -11 10 -5 0
-7 -4 -4 -10z"/>
<path d="M999 4864 c-1 -5 -1 -12 0 -16 0 -4 -6 -5 -14 -2 -8 4 -15 1 -15 -5
0 -17 30 -13 37 4 3 9 3 19 -1 22 -3 4 -7 2 -7 -3z"/>
<path d="M1048 4803 c7 -3 16 -2 19 1 4 3 -2 6 -13 5 -11 0 -14 -3 -6 -6z"/>
<path d="M530 4760 c0 -5 7 -10 15 -10 8 0 15 5 15 10 0 6 -7 10 -15 10 -8 0
-15 -4 -15 -10z"/>
<path d="M868 4713 c7 -3 16 -2 19 1 4 3 -2 6 -13 5 -11 0 -14 -3 -6 -6z"/>
<path d="M60 3608 c0 -4 8 -8 17 -8 15 0 14 -2 -3 -15 -18 -14 -17 -14 9 -4
34 15 36 40 2 37 -14 -1 -25 -6 -25 -10z"/>
<path d="M135 3590 c-3 -6 1 -7 9 -4 18 7 21 14 7 14 -6 0 -13 -4 -16 -10z"/>
<path d="M3485 3560 c3 -5 11 -10 16 -10 6 0 7 5 4 10 -3 6 -11 10 -16 10 -6
0 -7 -4 -4 -10z"/>
<path d="M40 3540 c0 -6 7 -13 15 -17 24 -9 27 1 5 15 -13 8 -20 8 -20 2z"/>
<path d="M190 3524 c0 -8 5 -12 10 -9 6 3 10 10 10 16 0 5 -4 9 -10 9 -5 0
-10 -7 -10 -16z"/>
<path d="M100 3455 c0 -8 5 -15 10 -15 6 0 10 7 10 15 0 8 -4 15 -10 15 -5 0
-10 -7 -10 -15z"/>
<path d="M1790 3460 c-8 -5 -11 -12 -7 -16 4 -4 13 -2 19 4 15 15 7 24 -12 12z"/>
<path d="M386 3425 c-3 -8 -1 -15 4 -15 13 0 22 18 11 24 -5 3 -11 -1 -15 -9z"/>
<path d="M1730 3409 c0 -5 5 -7 10 -4 6 3 10 8 10 11 0 2 -4 4 -10 4 -5 0 -10
-5 -10 -11z"/>
<path d="M157 3399 c7 -7 15 -10 18 -7 3 3 -2 9 -12 12 -14 6 -15 5 -6 -5z"/>
<path d="M1528 3403 c7 -3 16 -2 19 1 4 3 -2 6 -13 5 -11 0 -14 -3 -6 -6z"/>
<path d="M515 3380 c-3 -5 -1 -10 4 -10 6 0 11 5 11 10 0 6 -2 10 -4 10 -3 0
-8 -4 -11 -10z"/>
<path d="M1472 3370 c-10 -17 -10 -20 2 -20 19 0 31 19 19 31 -5 5 -14 0 -21
-11z"/>
<path d="M463 3342 c10 -10 14 -21 11 -25 -3 -3 3 -3 15 0 12 3 21 10 21 15 0
5 -4 7 -9 3 -5 -3 -16 2 -24 10 -22 21 -33 19 -14 -3z"/>
<path d="M1431 3351 c-8 -5 -9 -11 -3 -15 5 -3 12 1 16 9 6 17 6 18 -13 6z"/>
<path d="M1380 3309 c0 -5 5 -7 10 -4 6 3 10 8 10 11 0 2 -4 4 -10 4 -5 0 -10
-5 -10 -11z"/>
<path d="M420 3290 c0 -17 2 -19 14 -8 14 13 12 28 -5 28 -5 0 -9 -9 -9 -20z"/>
<path d="M971 3296 c-7 -8 -8 -17 -3 -20 6 -3 13 1 16 10 9 23 2 28 -13 10z"/>
<path d="M500 3291 c0 -6 4 -13 10 -16 6 -3 7 1 4 9 -7 18 -14 21 -14 7z"/>
<path d="M925 3290 c-3 -5 1 -10 9 -10 9 0 16 5 16 10 0 6 -4 10 -9 10 -6 0
-13 -4 -16 -10z"/>
<path d="M3741 1971 c-10 -7 -8 -12 10 -24 17 -13 26 -14 37 -5 12 10 11 14
-4 25 -21 15 -24 16 -43 4z"/>
<path d="M4604 1879 c-3 -6 -1 -16 5 -22 8 -8 11 -5 11 11 0 24 -5 28 -16 11z"/>
<path d="M5010 1506 c0 -9 5 -16 10 -16 6 0 10 4 10 9 0 6 -4 13 -10 16 -5 3
-10 -1 -10 -9z"/>
<path d="M3972 1471 c-8 -4 -5 -11 8 -19 16 -10 20 -10 20 2 0 19 -13 27 -28
17z"/>
<path d="M5598 1413 c-29 -5 -37 -20 -15 -29 19 -7 69 14 62 26 -3 5 -9 9 -13
9 -4 -1 -19 -4 -34 -6z"/>
<path d="M6070 1386 c0 -9 7 -16 16 -16 17 0 14 22 -4 28 -7 2 -12 -3 -12 -12z"/>
<path d="M4718 1283 c7 -3 16 -2 19 1 4 3 -2 6 -13 5 -11 0 -14 -3 -6 -6z"/>
<path d="M5845 1240 c-3 -5 -1 -10 4 -10 6 0 11 5 11 10 0 6 -2 10 -4 10 -3 0
-8 -4 -11 -10z"/>
<path d="M5433 1147 c-11 -23 -9 -25 17 -29 37 -6 53 4 48 28 -5 30 -52 30
-65 1z"/>
<path d="M6095 1130 c3 -5 8 -10 11 -10 2 0 4 5 4 10 0 6 -5 10 -11 10 -5 0
-7 -4 -4 -10z"/>
<path d="M5220 1100 c0 -5 5 -10 10 -10 6 0 10 5 10 10 0 6 -4 10 -10 10 -5 0
-10 -4 -10 -10z"/>
<path d="M5470 1070 c0 -5 5 -10 10 -10 6 0 10 5 10 10 0 6 -4 10 -10 10 -5 0
-10 -4 -10 -10z"/>
<path d="M6036 1053 c-4 -5 -42 -9 -84 -10 -107 -3 -201 -14 -208 -24 -3 -5
-16 -9 -30 -9 -15 0 -24 -6 -24 -15 0 -17 21 -20 36 -5 6 6 20 6 40 -2 27 -10
35 -8 62 12 28 21 44 24 149 26 65 1 120 3 122 3 2 1 -2 8 -9 16 -13 16 -42
20 -54 8z"/>
<path d="M5285 1040 c-3 -5 -17 -10 -31 -10 -13 0 -24 -4 -24 -9 0 -5 -2 -16
-6 -24 -4 -11 6 -16 38 -20 24 -2 50 -8 59 -11 10 -5 19 -1 22 8 4 9 3 15 -1
14 -17 -3 -42 16 -42 32 0 13 9 20 28 23 26 4 25 4 -5 6 -17 0 -35 -3 -38 -9z"/>
<path d="M4880 1029 c0 -5 5 -7 10 -4 6 3 10 8 10 11 0 2 -4 4 -10 4 -5 0 -10
-5 -10 -11z"/>
<path d="M5530 1028 c0 -4 5 -10 10 -13 6 -3 10 -14 10 -25 0 -21 19 -30 61
-30 33 0 35 6 14 46 -12 24 -21 29 -55 29 -22 0 -40 -3 -40 -7z"/>
<path d="M6199 963 c-13 -15 -12 -15 9 -4 23 12 28 21 13 21 -5 0 -15 -7 -22
-17z"/>
<path d="M4338 963 c7 -3 16 -2 19 1 4 3 -2 6 -13 5 -11 0 -14 -3 -6 -6z"/>
<path d="M4370 960 c0 -5 9 -10 20 -10 11 0 20 5 20 10 0 6 -9 10 -20 10 -11
0 -20 -4 -20 -10z"/>
<path d="M5596 902 c-2 -4 -2 -13 2 -19 8 -13 52 1 52 17 0 12 -46 14 -54 2z"/>
<path d="M5752 868 c-16 -16 -15 -28 3 -28 8 0 15 9 15 20 0 23 -2 24 -18 8z"/>
<path d="M4985 859 c-10 -15 1 -23 20 -15 9 3 13 10 10 16 -8 13 -22 13 -30
-1z"/>
<path d="M5270 805 c-12 -15 -10 -16 21 -13 37 3 46 21 13 26 -11 2 -27 -4
-34 -13z"/>
<path d="M260 800 c0 -5 5 -10 11 -10 5 0 7 5 4 10 -3 6 -8 10 -11 10 -2 0 -4
-4 -4 -10z"/>
<path d="M6144 802 c-6 -4 -14 -19 -17 -33 -6 -22 -3 -28 14 -32 21 -6 27 2
31 42 3 25 -10 36 -28 23z"/>
<path d="M5200 790 c0 -5 5 -10 10 -10 6 0 10 5 10 10 0 6 -4 10 -10 10 -5 0
-10 -4 -10 -10z"/>
<path d="M5909 736 c-2 -2 -41 -6 -87 -9 -46 -3 -86 -8 -89 -11 -4 -3 -12 -1
-18 4 -16 13 -27 -11 -14 -31 6 -11 13 -11 26 -3 10 6 45 9 79 7 61 -3 134 17
134 37 0 10 -23 14 -31 6z"/>
<path d="M5957 708 c8 -52 19 -54 25 -3 2 21 -2 30 -14 33 -13 3 -16 -3 -11
-30z"/>
<path d="M352 649 c2 -7 10 -15 17 -17 8 -3 12 1 9 9 -2 7 -10 15 -17 17 -8 3
-12 -1 -9 -9z"/>
<path d="M5506 619 l-16 -31 33 5 c20 3 38 -1 49 -10 16 -14 38 -11 38 6 0 16
-53 61 -71 61 -10 0 -24 -14 -33 -31z"/>
<path d="M366 552 c-3 -6 -1 -14 5 -17 14 -9 20 -2 10 14 -6 8 -11 9 -15 3z"/>
<path d="M5375 541 c-3 -5 -1 -12 5 -16 5 -3 10 1 10 9 0 18 -6 21 -15 7z"/>
<path d="M5569 514 c-10 -12 -57 -25 -94 -25 -59 -1 -107 -11 -97 -21 7 -7 29
-7 68 0 32 5 84 8 116 6 58 -4 79 6 59 30 -6 7 -8 16 -5 19 4 3 -4 5 -15 4
-12 -1 -27 -7 -32 -13z"/>
<path d="M6220 489 c0 -5 5 -7 10 -4 6 3 10 8 10 11 0 2 -4 4 -10 4 -5 0 -10
-5 -10 -11z"/>
<path d="M5240 425 c-26 -14 -23 -17 28 -28 24 -6 30 14 9 31 -8 7 -20 6 -37
-3z"/>
<path d="M4991 416 c-28 -10 -31 -14 -17 -19 10 -4 31 -7 47 -7 22 0 29 5 29
20 0 23 -10 24 -59 6z"/>
<path d="M5330 360 c0 -5 6 -10 14 -10 8 0 18 5 21 10 3 6 -3 10 -14 10 -12 0
-21 -4 -21 -10z"/>
<path d="M5880 271 c0 -5 6 -8 13 -6 6 3 20 -8 31 -23 10 -15 32 -36 48 -45
16 -9 26 -22 23 -28 -5 -8 -10 -8 -18 0 -18 18 -27 12 -27 -19 0 -29 -7 -34
-42 -31 -12 2 -18 -5 -19 -21 -1 -17 -3 -18 -6 -6 -6 23 -15 23 -30 -2 -13
-20 -3 -34 26 -35 19 0 27 -25 8 -25 -8 0 -20 -7 -27 -15 -11 -13 -2 -15 69
-15 44 0 81 4 81 9 0 6 24 7 55 4 l55 -6 0 33 c0 20 -7 38 -17 46 -17 11 -16
13 9 23 15 5 35 22 44 37 18 26 18 27 -11 50 -21 17 -29 31 -27 48 3 22 -1 24
-41 27 -60 5 -71 2 -82 -24 -13 -29 -39 -28 -43 1 -2 12 -9 22 -15 22 -7 0
-22 3 -34 6 -14 4 -23 2 -23 -5z m140 -190 c0 -4 -17 -17 -38 -28 -27 -16 -42
-19 -54 -12 -21 12 -13 38 14 48 23 8 78 2 78 -8z"/>
<path d="M4920 220 c0 -5 5 -10 10 -10 6 0 10 5 10 10 0 6 -4 10 -10 10 -5 0
-10 -4 -10 -10z"/>
<path d="M5365 217 c-10 -7 -26 -18 -34 -26 -9 -8 -27 -11 -50 -7 -20 3 -41 0
-49 -6 -10 -9 -18 -9 -33 0 -24 15 -39 8 -39 -18 0 -29 -11 -50 -26 -50 -8 0
-14 -4 -14 -10 0 -5 9 -10 20 -10 12 0 32 -7 45 -16 13 -9 30 -14 37 -11 7 2
21 0 30 -4 12 -7 24 -1 47 21 25 26 35 29 65 24 43 -6 73 16 82 63 5 28 3 33
-24 47 -36 18 -31 18 -57 3z"/>
<path d="M5016 191 c-6 -10 54 -35 62 -26 7 7 -29 34 -45 35 -6 0 -14 -4 -17
-9z"/>
<path d="M4937 172 c-32 -20 -32 -46 1 -50 12 -2 22 -10 22 -18 0 -20 13 -17
28 6 10 17 10 26 -3 50 -9 17 -17 30 -18 30 -1 0 -14 -8 -30 -18z"/>
<path d="M6253 80 c0 -25 2 -35 4 -22 2 12 2 32 0 45 -2 12 -4 2 -4 -23z"/>
<path d="M5766 73 c-14 -14 -26 -29 -26 -33 0 -11 43 -21 50 -11 3 4 13 10 23
14 23 8 22 34 -2 46 -15 8 -24 5 -45 -16z"/>
<path d="M6155 80 c-3 -5 1 -10 10 -10 9 0 13 5 10 10 -3 6 -8 10 -10 10 -2 0
-7 -4 -10 -10z"/>
<path d="M5677 44 c27 -25 35 -28 46 -18 14 14 -13 41 -42 42 l-31 1 27 -25z"/>
<path d="M6192 43 c-7 -3 -17 -13 -23 -24 -9 -18 -7 -19 18 -13 15 4 32 10 36
14 11 9 -15 28 -31 23z"/>
</g>
</svg>
